<?xml version="1.0" encoding="utf-8"?>
<!-- Generator: Adobe Illustrator 18.1.1, SVG Export Plug-In . SVG Version: 6.00 Build 0)  -->
<svg version="1.1" id="Layer_1" xmlns="http://www.w3.org/2000/svg" xmlns:xlink="http://www.w3.org/1999/xlink" x="0px" y="0px"
	 viewBox="-452 -114.5 512 512" enable-background="new -452 -114.5 512 512" xml:space="preserve">
<g>
	<path fill="#FFFFFF" d="M10.5,353.7l-33.9,33.9c-6.1,6-23.8,9.8-24.3,9.8c-107.4,0.9-210.9-41.3-286.9-117.3
		C-410.9,203.9-453.1,100.1-452-7.7c0-0.1,3.9-17.3,9.9-23.3l33.9-34c12.5-12.4,36.3-18.1,53-12.5l7.2,2.4c16.7,5.6,34.2,24,38.8,41
		l17.1,62.7c4.6,17-1.6,41.2-14,53.6l-22.7,22.7c22.3,82.5,86.9,147.1,169.3,169.4l22.7-22.7c12.4-12.4,36.7-18.7,53.7-14l62.7,17.1
		c16.9,4.6,35.4,22,41,38.7l2.4,7.2C28.6,317.4,22.9,341.2,10.5,353.7z M-164,141.5h32c0-35.3-28.7-64-64-64v32
		C-178.4,109.5-164,123.8-164,141.5z M-36,141.5c0-88.4-71.6-160-160-160v32c70.6,0,128,57.4,128,128H-36z M-196-114.5v32
		c123.5,0,224,100.5,224,224h32C60,0.1-54.6-114.5-196-114.5z"/>
</g>
</svg>
