<?xml version="1.0" encoding="utf-8"?>
<!-- Generator: Adobe Illustrator 18.1.1, SVG Export Plug-In . SVG Version: 6.00 Build 0)  -->
<svg version="1.1" id="Layer_2" xmlns="http://www.w3.org/2000/svg" xmlns:xlink="http://www.w3.org/1999/xlink" x="0px" y="0px"
	 viewBox="-196 41.5 200 200" enable-background="new -196 41.5 200 200" xml:space="preserve">
<g>
	<path fill="#3B559F" d="M4,232.2c0,5.1-4.2,9.3-9.3,9.3h-181.4c-5.1,0-9.3-4.2-9.3-9.3V50.8c0-5.1,4.2-9.3,9.3-9.3H-5.3
		c5.1,0,9.3,4.2,9.3,9.3L4,232.2L4,232.2z"/>
	<path fill="#FFFFFF" d="M-42.1,100.4h15.5v-28c-6.2-0.2-14.4-0.4-25.2-0.6c-38.8-0.8-37.3,39-37.3,39v22.9h-26.6v30H-89v77.8h31
		v-77.8H-32l3.7-30H-58v-20.1C-58,99.1-42.1,100.4-42.1,100.4z"/>
</g>
</svg>
