<?xml version="1.0" encoding="utf-8"?>
<!-- Generator: Adobe Illustrator 18.1.1, SVG Export Plug-In . SVG Version: 6.00 Build 0)  -->
<svg version="1.1" id="Layer_1" xmlns="http://www.w3.org/2000/svg" xmlns:xlink="http://www.w3.org/1999/xlink" x="0px" y="0px"
	 viewBox="0 0 458.5 436.2" enable-background="new 0 0 458.5 436.2" xml:space="preserve">
<g>
	<path fill="#FDFEFE" d="M82,380.5c-1.8-0.8-3.1-1.7-1-3.5c1.3-1.1,2.7-1.9,4.1-2.8c13.1-8.5,25.3-17.8,33.5-31.5
		c6.8-11.4,5.7-18.1-2.7-26.5c-47.4-47.4-68.2-104.1-57.8-171.1c5.9-37.8,23.2-70.5,48.4-98.9c15.2-17.1,33.3-31.1,53.1-42.7
		c1.2-0.7,2.9-0.9,3.2-2.6c-0.4-1-1.2-0.7-1.7-0.7c-33.7,0-67.3-0.7-101,0.2C27.8,1.3-0.1,26.2,0,61.9c0.2,104.3,0,208.7,0,313
		c0,32.4,24.7,59.5,57,60.7c27.3,1.1,54.6,0.2,82,0.1c2,0.1,4,0.2,6,0.2c48.2,0,96.3,0,144.5,0c36,0,72,0.1,108-0.1
		c33.8-0.2,60.4-27.1,60.5-60.9c0-19.5,0-39,0-58.5c0-1.4,0.5-2.9-0.4-4.4c-1.8,0.1-2.5,1.6-3.4,2.6c-19.6,19.6-42.1,35.1-67.4,46.2
		c-61.5,27.1-124.1,29-187.6,7.2c-5.8-2-11.5-2.2-17.2-0.7c-8.4,2.2-16.7,4.6-25,7.1C132.4,382.1,107.6,385.5,82,380.5z M154.5,212
		c1.7-2.2,2.6-3.5,3.7-4.8c13.1-16.6,26.2-33.2,39.3-49.9c3.8-4.8,7.6-9.7,10-15.5c2.7-6.6-0.2-12.8-7-15.2
		c-3.1-1.1-6.2-1.1-9.4-1.1c-17.8-0.1-35.7-0.1-53.5,0c-2.5,0-5,0.2-7.4,0.9c-5,1.4-8,5.5-7.9,10.3c0,4.8,3.1,8.8,8.1,10.1
		c2.4,0.6,4.9,0.8,7.4,0.8c10.8,0.1,21.7,0,32.5,0.1c1.2,0,2.7-0.8,3.6,0.9c-0.9,1.2-1.8,2.4-2.7,3.5
		c-15.5,19.6-30.9,39.3-46.4,58.9c-3.8,4.9-5.8,10.3-3,16.3c2.8,6,8.4,7.1,14.2,7.5c4.7,0.3,9.3,0.1,14,0.1
		c16.2,0,32.3,0.1,48.5-0.1c8.6-0.1,13.2-5.3,12.3-13.3c-0.7-6.2-5-9.6-13-9.7C183.7,211.9,169.6,212,154.5,212z M270.5,159.4
		c-12.5-10.9-26.3-11.6-39.8-3.6c-16.3,9.6-22.4,25.3-20.3,43.5c1.9,17,9.3,30.9,27.1,36.7c11.1,3.6,21.4,2.3,30.5-5.1
		c2.4-1.9,3.1-1.5,4.8,0.6c3.4,4.3,8.8,5.6,14,3.9c4.9-1.7,8.3-5.9,8.3-11.3c0.1-20,0.2-40,0-60c-0.1-8-7.6-13.1-15.4-11.5
		C275.3,153.4,272.9,156.3,270.5,159.4z M339.8,196.5c-0.4,25,20.3,43.9,46.3,41.3c23.9-2.4,39.4-20.3,38.6-45.6
		c-0.8-25-19.4-42.1-44.9-41.3C355.9,151.6,339,170.8,339.8,196.5z M331,176.6c0-15.7,0.1-31.3,0-47c0-8-5.1-13-12.7-12.9
		c-7.4,0.1-12.2,5.1-12.4,12.7c-0.1,4.7,0,9.3,0,14c0,26.5,0,53,0,79.5c0,6.2,3.8,11.6,8.8,12.9c8.4,2.1,16.2-3.9,16.3-12.7
		C331.1,207.6,331,192.1,331,176.6z"/>
	<path fill="#0180C7" d="M139,435.8c-27.3,0-54.7,0.9-82-0.1c-32.3-1.3-57-28.4-57-60.7c0-104.3,0.2-208.7,0-313
		C-0.1,26.2,27.8,1.3,59.9,0.4c33.6-0.9,67.3-0.2,101-0.2c0.6,0,1.4-0.3,1.7,0.7c-0.2,1.8-2,2-3.2,2.6
		c-19.8,11.6-37.9,25.5-53.1,42.7C81.3,74.7,64,107.3,58.1,145.1c-10.4,66.9,10.5,123.7,57.8,171.1c8.4,8.4,9.5,15.1,2.7,26.5
		c-8.1,13.7-20.4,23-33.5,31.5c-1.4,0.9-2.9,1.7-4.1,2.8c-2.1,1.8-0.8,2.7,1,3.5c0.5,0.8,0.8,1.9,1.5,2.5
		c11.5,10.2,22.4,21.1,33.7,31.5c5.4,4.9,10.6,10,15.7,15.1C134.9,431.6,138.4,432.3,139,435.8z"/>
	<path fill="#0172B1" d="M139,435.8c-0.5-3.5-4-4.1-6.1-6.2c-5.1-5.2-10.4-10.2-15.7-15.1C105.9,404.1,95,393.2,83.5,383
		c-0.7-0.6-1-1.7-1.5-2.5c25.5,5,50.4,1.6,74.9-5.9c8.3-2.5,16.6-5,25-7.1c5.7-1.5,11.4-1.3,17.2,0.7c63.4,21.8,126,19.9,187.6-7.2
		c25.3-11.1,47.8-26.6,67.4-46.2c1-1,1.7-2.5,3.4-2.6c0.9,1.4,0.4,2.9,0.4,4.4c0,19.5,0,39,0,58.5c0,33.8-26.6,60.7-60.5,60.9
		c-36,0.2-72,0.1-108,0.1c-48.2,0-96.3,0-144.5,0C143,436,141,435.8,139,435.8z"/>
	<path fill="#0180C7" d="M154.5,212c15.1,0,29.3-0.1,43.4,0c7.9,0.1,12.2,3.4,13,9.7c0.9,7.9-3.7,13.2-12.3,13.3
		c-16.2,0.2-32.3,0.1-48.5,0.1c-4.7,0-9.3,0.2-14-0.1c-5.8-0.3-11.5-1.5-14.2-7.5c-2.8-6-0.8-11.4,3-16.3
		c15.4-19.6,30.9-39.3,46.4-58.9c0.9-1.2,1.8-2.4,2.7-3.5c-0.9-1.7-2.4-0.9-3.6-0.9c-10.8-0.1-21.7,0-32.5-0.1c-2.5,0-5-0.2-7.4-0.8
		c-5-1.3-8.1-5.3-8.1-10.1c0-4.8,2.9-8.9,7.9-10.3c2.4-0.7,4.9-0.9,7.4-0.9c17.8-0.1,35.7-0.1,53.5,0c3.2,0,6.3,0.1,9.4,1.1
		c6.8,2.3,9.7,8.6,7,15.2c-2.4,5.7-6.2,10.6-10,15.5c-13.1,16.6-26.2,33.2-39.3,49.9C157.1,208.5,156.1,209.9,154.5,212z"/>
	<path fill="#0180C7" d="M270.5,159.4c2.4-3.1,4.9-6,9-6.8c7.9-1.6,15.3,3.5,15.4,11.5c0.3,20,0.2,40,0,60c0,5.5-3.4,9.6-8.3,11.3
		c-5.2,1.8-10.5,0.5-14-3.9c-1.7-2.1-2.4-2.5-4.8-0.6c-9.1,7.4-19.4,8.7-30.5,5.1c-17.8-5.8-25.1-19.7-27.1-36.7
		c-2.1-18.3,4-33.9,20.3-43.5C244.2,147.8,258,148.5,270.5,159.4z M235.1,196c0.1,3.4,1.2,8.1,4.2,12.1c6.5,8.7,19.8,8.7,26.2,0
		c5.6-7.6,5.6-20.1,0-27.7c-3-4-6.9-6.1-11.9-6.4C242.7,173.3,235,181.8,235.1,196z"/>
	<path fill="#0180C7" d="M339.8,196.5c-0.8-25.7,16.1-44.9,40-45.6c25.5-0.8,44.1,16.3,44.9,41.3c0.8,25.3-14.7,43.2-38.6,45.6
		C360.1,240.4,339.4,221.5,339.8,196.5z M364.9,194.1c0,5.1,1.2,9.9,4.3,14c6.3,8.5,19.5,8.6,25.9,0.2c5.8-7.6,5.8-20.4,0.1-28
		c-3-4-7-6-11.9-6.3C372.5,173.4,365,181.7,364.9,194.1z"/>
	<path fill="#0180C7" d="M331,176.6c0,15.5,0.1,31,0,46.5c-0.1,8.9-7.9,14.9-16.3,12.7c-5-1.3-8.8-6.6-8.8-12.9c0-26.5,0-53,0-79.5
		c0-4.7-0.1-9.3,0-14c0.1-7.7,5-12.7,12.4-12.7c7.6-0.1,12.7,4.9,12.7,12.9C331.1,145.3,331,161,331,176.6z"/>
	<path fill="#FDFEFE" d="M235.1,196c-0.1-14.1,7.6-22.6,18.5-22c4.9,0.3,8.9,2.4,11.9,6.4c5.6,7.6,5.6,20.1,0,27.7
		c-6.5,8.7-19.7,8.7-26.2,0C236.4,204,235.2,199.4,235.1,196z"/>
	<path fill="#FDFEFE" d="M364.9,194.1c0-12.4,7.6-20.7,18.4-20.1c4.9,0.3,8.9,2.3,11.9,6.3c5.7,7.6,5.7,20.5-0.1,28
		c-6.5,8.4-19.6,8.3-25.9-0.2C366.1,204,364.9,199.2,364.9,194.1z"/>
	<g>
		<path fill="none" stroke="#0180C7" stroke-width="2" stroke-miterlimit="10" d="M458.5,368.7c0,35.8-29.3,65-65,65H65.4
			c-35.8,0-65-29.3-65-65v-303c0-35.8,29.3-65,65-65h328.1c35.8,0,65,29.3,65,65V368.7z"/>
	</g>
</g>
</svg>
