<?xml version="1.0" encoding="utf-8"?>
<!-- Generator: Adobe Illustrator 18.1.1, SVG Export Plug-In . SVG Version: 6.00 Build 0)  -->
<svg version="1.1" id="Layer_1" xmlns="http://www.w3.org/2000/svg" xmlns:xlink="http://www.w3.org/1999/xlink" x="0px" y="0px"
	 viewBox="0 0 183 27.8" enable-background="new 0 0 183 27.8" xml:space="preserve">
<g>
	<path fill="#EF436F" d="M3.2,27.4H0V0h3.2v10.1L6.7,0h3.3L6.4,10.2l3.9,17.2H7.1L4.4,14.7H4.4l-1.2,3V27.4z"/>
	<path fill="#EF436F" d="M15,27.4h-3.2V0H15v11.2h3.5V0h3.2v27.4h-3.2V15.3H15V27.4z"/>
	<path fill="#EF436F" d="M27.3,21.3l-0.6,6.1h-3.1L27.1,0h4l3.5,27.4h-3.1l-0.6-6.1H27.3z M29,5.5l-1.3,11.8h2.6L29,5.5L29,5.5z"/>
	<path fill="#EF436F" d="M39.3,27.4h-2.9V0h3l4,15.7V0h2.9v27.4h-2.8l-4.2-17.1V27.4z"/>
	<path fill="#EF436F" d="M49.5,27.4V0h4.8c3.3,0,5,2.4,5,7.2c0,1.3-0.2,2.4-0.5,3.4c-0.4,1.1-1,1.9-1.7,2.3c1.7,1.1,2.6,3.3,2.6,6.5
		c0,5.3-1.7,7.9-5.1,7.9H49.5z M52.7,3.9v7.4h1.2c0.6,0,1.2-0.3,1.6-0.9c0.4-0.6,0.6-1.5,0.6-2.6c0-2.6-0.7-3.9-2.1-3.9H52.7z
		 M52.7,15.1v8.4h1.4c1.6,0,2.4-1.4,2.4-4.2c0-2.8-0.9-4.2-2.7-4.2H52.7z"/>
	<path fill="#EF436F" d="M62.6,20.8V6.6c0-2,0.4-3.7,1.2-5c0.9-1.4,2.1-2,3.8-2c1.6,0,2.9,0.7,3.8,2c0.8,1.3,1.2,2.9,1.2,5v14.1
		c0,2.1-0.4,3.7-1.2,5c-0.9,1.4-2.1,2-3.8,2c-1.6,0-2.9-0.7-3.8-2C63,24.5,62.6,22.8,62.6,20.8z M65.8,6.8v13.9c0,2,0.6,3,1.7,3
		c1.2,0,1.7-1,1.7-3V6.8c0-2-0.6-3-1.7-3C66.4,3.7,65.8,4.7,65.8,6.8z"/>
	<path fill="#EF436F" d="M78.5,27.4h-2.9V0h3l4,15.7V0h2.9v27.4h-2.8l-4.2-17.1V27.4z"/>
	<path fill="#EF436F" d="M93.2,17.2v-3.7h5.3v13.9H97l-0.6-2c-0.5,0.9-1,1.5-1.4,1.8c-0.5,0.4-1.1,0.6-1.8,0.6
		c-1.3,0-2.3-0.6-3.1-1.9c-0.8-1.3-1.2-3-1.2-5.1V6.6c0-2,0.4-3.7,1.2-5c0.9-1.4,2-2,3.6-2c1.6,0,2.8,0.7,3.7,2.2
		C98,3.2,98.4,5,98.4,7.1v1.7h-3.1c0-2-0.1-3.4-0.4-4.1c-0.3-0.7-0.8-1-1.4-1c-1,0-1.4,1-1.4,3v14.1c0,1.9,0.5,2.9,1.5,2.9
		c0.6,0,1.1-0.3,1.4-0.9c0.3-0.6,0.4-1.6,0.4-2.9v-2.7H93.2z"/>
	<path fill="#EF436F" d="M110.8,6.3l-3.1,0.5c-0.1-2-0.7-3-1.7-3c-1.1,0-1.6,0.9-1.6,2.7c0,1.2,0.6,2.6,1.7,4.1
		c1.1,1.4,2.1,2.8,3.2,4.2c1.1,1.9,1.7,3.9,1.7,6c0,2.2-0.5,4-1.4,5.2c-0.9,1.2-2.2,1.8-3.7,1.8c-1.4,0-2.6-0.8-3.5-2.3
		c-0.8-1.4-1.3-3.2-1.4-5.3l3.1-0.6c0.1,2.8,0.8,4.1,1.9,4.1c1.3,0,1.9-0.8,1.9-2.5c0-1.5-0.6-3-1.7-4.5c-1.1-1.4-2.1-2.8-3.2-4.1
		c-1.1-1.8-1.7-3.9-1.7-6.1c0-2.2,0.4-3.9,1.3-5c0.9-1.2,2.1-1.8,3.7-1.8c1.3,0,2.3,0.6,3.1,1.9C110.2,2.7,110.6,4.3,110.8,6.3z"/>
	<path fill="#EF436F" d="M116.6,27.4h-3.2V0h4.7c2,0,3.5,0.6,4.5,1.9c0.9,1.3,1.4,3.3,1.4,6.2s-0.5,5-1.4,6.2
		c-0.9,1.3-2.4,1.9-4.5,1.9h-1.4V27.4z M116.6,3.9v8.4h1.3c1.1,0,1.8-0.3,2.2-0.9c0.4-0.6,0.6-1.7,0.6-3.3s-0.2-2.7-0.6-3.3
		c-0.4-0.6-1.1-0.9-2.2-0.9H116.6z"/>
	<path fill="#EF436F" d="M128.9,21.3l-0.6,6.1h-3.1L128.7,0h4l3.5,27.4H133l-0.6-6.1H128.9z M130.7,5.5l-1.3,11.8h2.6L130.7,5.5
		L130.7,5.5z"/>
	<path fill="#414141" d="M140.9,27.4h-3.1v-4.5h3.1V27.4z"/>
	<path fill="#414141" d="M153.7,9.1h-3.2V7c0-2.2-0.5-3.3-1.6-3.3c-1.1,0-1.7,1-1.7,3v13.9c0,2,0.6,3,1.7,3c1,0,1.6-0.9,1.6-2.8
		v-3.3h3.2v3.1c0,2.1-0.4,3.7-1.2,5c-0.9,1.4-2.1,2-3.6,2c-1.6,0-2.9-0.7-3.8-2c-0.8-1.3-1.2-2.9-1.2-5V6.6c0-2,0.4-3.7,1.2-5
		c0.9-1.4,2.1-2,3.8-2c1.6,0,2.8,0.7,3.6,2.2c0.8,1.4,1.2,3.1,1.2,5.3V9.1z"/>
	<path fill="#414141" d="M156.9,20.8V6.6c0-2,0.4-3.7,1.2-5c0.9-1.4,2.1-2,3.8-2c1.6,0,2.9,0.7,3.8,2c0.8,1.3,1.2,2.9,1.2,5v14.1
		c0,2.1-0.4,3.7-1.2,5c-0.9,1.4-2.1,2-3.8,2c-1.6,0-2.9-0.7-3.8-2C157.3,24.5,156.9,22.8,156.9,20.8z M160.2,6.8v13.9
		c0,2,0.6,3,1.7,3c1.2,0,1.7-1,1.7-3V6.8c0-2-0.6-3-1.7-3C160.8,3.7,160.2,4.7,160.2,6.8z"/>
	<path fill="#414141" d="M178.7,0h4.3v27.4h-2.8V6l-3,21.4h-1.6l-3-21.4v21.4h-2.8V0h4.3l2.3,16h0.1L178.7,0z"/>
</g>
</svg>
